Simulation
nRows=35
nColumns=15
endheader
time  TH_x TH_y TH_z SC_y  SC_z  SC_x  AC_y  AC_z  AC_x  GH_y  GH_z  GH_yy  EL_x  PS_y
4.133333333333333  0.000000  0.000000  0.000000  -21.330851948374555  4.206696803571834  17.253795246988133  59.50066647191993  11.758934529870404  2.156508227161191  50.39350203876697  57.440397416419245  -51.413669897336064  11.38739843390571  120.000000
4.173856209150326  0.000000  0.000000  0.000000  -21.351339868949378  3.92125788986177  16.979115996926723  59.79111422155541  11.591926878515798  1.8300789033088602  51.30617973980403  57.30258569350598  -52.4717231475021  11.03263548781592  120.000000
4.2143790849673195  0.000000  0.000000  0.000000  -21.426561399008023  3.6382876010754277  16.7308334746575  60.12093730483549  11.427141296902091  1.5419497001157545  52.27508605857896  57.18829675125519  -53.4972657639036  10.694843177830313  120.000000
4.254901960784313  0.000000  0.000000  0.000000  -21.557584242873904  3.3620543277933947  16.51803017766328  60.48830204990507  11.269947929163008  1.2978777571432392  53.28706767428528  57.10018371456391  -54.47704216068331  10.381789467989213  120.000000
4.295424836601307  0.000000  0.000000  0.000000  -21.739648599178906  3.09802230278686  16.34633206505864  60.88849982492354  11.122878477310069  1.1014211168511334  54.32697691186466  57.03931590669545  -55.40291825803219  10.099580244895716  120.000000
4.3359477124183  0.000000  0.000000  0.000000  -21.962204978325005  2.851832210431052  16.218083129161172  61.31368156773381  10.985600944069343  0.9535383686515605  55.37754148141057  57.00552830924368  -56.270946787116884  9.852811390531972  120.000000
4.376470588235294  0.000000  0.000000  0.000000  -22.210329888160086  2.6288488515402864  16.13311737422661  61.75310948217011  10.855588661791668  0.8526844767485219  56.41995087862967  56.99718246234541  -57.079550925602085  9.644830119225665  120.000000
4.416993464052287  0.000000  0.000000  0.000000  -22.467358075552525  2.4332734409035344  16.08956154506969  62.194420945877624  10.729554122815443  0.7946892284246485  57.43491741488405  57.01095234370886  -57.827548325352616  9.47830400772674  120.000000
4.45751633986928  0.000000  0.000000  0.000000  -22.717440331155437  2.2670351463397753  16.08438174425339  62.62512136007545  10.604546335267033  0.7727048221867074  58.40395649854552  57.04198554985294  -58.5128936938051  9.355875883701215  120.000000
4.498039215686274  0.000000  0.000000  0.000000  -22.947241088190268  2.1301176883517576  16.113876876181624  63.03347296118295  10.478144152137506  0.7781803909294744  59.31085326977079  57.08411012797602  -59.13240682731874  9.280265351630444  120.000000
4.538562091503268  0.000000  0.000000  0.000000  -23.146941777423187  2.02099800211334  16.17416042144714  63.40947815309635  10.348563495186786  0.8019739366712069  60.14287803450362  57.13044039829402  -59.68235960648308  9.253349578801261  120.000000
4.579084967320261  0.000000  0.000000  0.000000  -23.310952247910155  1.9369562228423889  16.261497309916454  63.74596875798365  10.214920109835479  0.8354237034725311  60.891650839037425  57.174314127611396  -60.15967679560587  9.274811441230911  120.000000
4.6196078431372545  0.000000  0.000000  0.000000  -23.438312210774424  1.8746357137348584  16.372643836337282  64.039374948772  10.077320334466306  0.8713608176446487  61.553710287141584  57.21025688229293  -60.563326396288055  9.340906295683723  120.000000
4.660130718954248  0.000000  0.000000  0.000000  -23.532232752679096  1.8302271069600062  16.504983002871533  64.29001065329777  9.936684412539861  0.904496448617357  62.130429038159676  57.23483680081749  -60.89558000410745  9.443950984087383  120.000000
4.700653594771241  0.000000  0.000000  0.000000  -23.598967377221626  1.7998562304284416  16.65601167875594  64.5014642325558  9.794450094622816  0.9315739099228134  62.627301893331484  57.247118187464224  -61.16276787104367  9.57316317702544  120.000000
4.741176470588234  0.000000  0.000000  0.000000  -23.646743792362273  1.7801450130307375  16.82279177153039  64.67943707872145  9.652400152400723  0.9513299813197962  63.052752754838565  57.24860892614776  -61.375159616565796  9.716203758306884  120.000000
4.781699346405228  0.000000  0.000000  0.000000  -23.684672866914294  1.768303030079551  17.00194037381183  64.83058811178553  9.512562822457369  0.9639719620971702  63.416548596512676  57.24279901516877  -61.54594029526367  9.860363023293884  120.000000
4.822222222222222  0.000000  0.000000  0.000000  -23.721516200255746  1.7620652514529678  17.189815123752865  64.96150589948064  9.377039601500664  0.9705578375758367  63.728248320582  57.23432778974506  -61.689556268815736  9.993357524096359  120.000000
4.862745098039215  0.000000  0.000000  0.000000  -23.764461746286983  1.7596636681899214  17.38257864470767  65.07785412970271  9.24786316280277  0.9724945454074483  63.99589384920251  57.227719874768944  -61.81963093794957  10.10432940475683  120.000000
4.903267973856209  0.000000  0.000000  0.000000  -23.81797976753684  1.759795317346744  17.57623817464703  65.18357315254875  9.126757506986346  0.9710359191238707  64.22490980862071  57.225815019999466  -61.94664968926652  10.185390459118535  120.000000
4.943790849673202  0.000000  0.000000  0.000000  -23.882989923665164  1.7616092774550056  17.766503681110578  65.28018756645292  9.015028090956953  0.9668796763069184  64.41733357483534  57.22830279871068  -62.07597906735299  10.233187644979816  120.000000
4.984313725490195  0.000000  0.000000  0.000000  -23.95672398376163  1.764718443816978  17.94835402780086  65.36644781953854  8.913855253415184  0.960086616070177  64.57164050847295  57.23102523320763  -62.20683103973645  10.249377580524117  120.000000
5.024836601307189  0.000000  0.000000  0.000000  -24.03333688481847  1.7691371865980348  18.11601417819906  65.43852623408873  8.824497270936071  0.9500297941173047  64.68317274078727  57.22640005391532  -62.33245738898275  10.239655315558954  120.000000
5.065359477124183  0.000000  0.000000  0.000000  -24.104884797355627  1.7751768939624613  18.263283752876493  65.49054004611527  8.748287652624953  0.9353844858478711  64.74480281718549  57.20470902275825  -62.44115563798792  10.212191682736403  120.000000
5.105882352941176  0.000000  0.000000  0.000000  -24.162452656840095  1.7835473770170491  18.38401796746971  65.51513914138168  8.686521598809058  0.9143271150170963  64.74756712419523  57.15580691711383  -62.51744653885215  10.176352672978703  120.000000
5.146405228758169  0.000000  0.000000  0.000000  -24.197250389949783  1.795637715183119  18.472837504060568  65.50413400428035  8.640291422933416  0.8850080001675106  64.68103643918468  57.070896570653  -62.54296120476489  10.141788449259808  120.000000
5.186928104575163  0.000000  0.000000  0.000000  -24.201547033089017  1.813709864269543  18.52571225218817  65.44921717274092  8.610920474702837  0.846360564931314  64.53335697348325  56.94421936120697  -62.4967966717096  10.117452218279274  120.000000
5.227450980392156  0.000000  0.000000  0.000000  -24.169722857494204  1.8409232686537023  18.540674452599973  65.34300274520054  8.60068485811302  0.7991469324313482  64.29121938945302  56.77436733665393  -62.35524776367695  10.110399537921385  120.000000
5.267973856209149  0.000000  0.000000  0.000000  -24.09906339774455  1.8812483495400067  18.518914473318702  65.1803432125292  8.612895604384166  0.7466023852205773  63.94023177257737  56.56511782663677  -62.09157898560296  10.124351738418309  120.000000
5.308496732026143  0.000000  0.000000  0.000000  -23.989755996314393  1.939287147482216  18.46507715617935  64.95917117209372  8.65183790164699  0.6947494892658517  63.46524724124326  56.32549488589165  -61.67615160194623  10.158971033749356  120.000000
5.349019607843137  0.000000  0.000000  0.000000  -23.845173787649443  2.0202606595672004  18.38635916865748  64.68025214731354  8.722799757176146  0.6526226825096298  62.850829680828525  56.06907017296977  -61.076990173775634  10.211266955007535  120.000000
5.38954248366013  0.000000  0.000000  0.000000  -23.67192203522369  2.130062528198222  18.2918065817383  64.34700042490792  8.83091949846048  0.631885543854402  62.08272411404449  55.81255819262915  -60.26085812026456  10.277108770604627  120.000000
5.4300653594771235  0.000000  0.000000  0.000000  -23.478228285768505  2.274348924013429  18.191377785599315  63.965503566472016  8.97943826163365  0.6450526651200762  61.15024959453203  55.574367665094854  -59.196154177050744  10.351574544145869  120.000000
5.470588235294117  0.000000  0.000000  0.000000  -23.27260897935924  2.458040767667654  18.095011905432116  63.54315909411911  9.168375523876193  0.7042547326617397  60.047917053244674  55.372423407257656  -57.85666517779637  10.430298148235778  120.000000
5.51111111111111  0.000000  0.000000  0.000000  -23.06342609233792  2.6853972155938832  18.012521173902186  63.08747890873324  9.394738246370858  0.8203796487644501  58.77549125618283  55.22204018418691  -56.22489007749386  10.51009689864107  120.000000
